<svg xmlns="http://www.w3.org/2000/svg" xmlns:xlink="http://www.w3.org/1999/xlink" viewBox="0 0 758.21 871.15"><defs><style>.cls-1{fill:url(#linear-gradient);}.cls-2{fill:url(#linear-gradient-2);}.cls-3{fill:url(#linear-gradient-3);}</style><linearGradient id="linear-gradient" x1="120.9" y1="500" x2="538.94" y2="500" gradientUnits="userSpaceOnUse"><stop offset="0" stop-color="#666"/><stop offset="0.2" stop-color="#505050"/><stop offset="0.52" stop-color="#333"/><stop offset="0.8" stop-color="#212121"/><stop offset="1" stop-color="#1a1a1a"/></linearGradient><linearGradient id="linear-gradient-2" x1="222.67" y1="629.77" x2="770.22" y2="629.77" xlink:href="#linear-gradient"/><linearGradient id="linear-gradient-3" x1="420.04" y1="498" x2="879.1" y2="498" gradientUnits="userSpaceOnUse"><stop offset="0" stop-color="#666"/><stop offset="0.05" stop-color="#626262"/><stop offset="0.69" stop-color="#2e2e2e"/><stop offset="1" stop-color="#1a1a1a"/></linearGradient></defs><title>logo</title><g id="Layer_3" data-name="Layer 3"><path class="cls-1" d="M210.55,899c-3.2,9.19-9.16,19.55-18.54,27.14s-21.19,9.44-34.75,9.44H120.9L444.16,64.43l94.78.47-27.09,3.53" transform="translate(-120.9 -64.43)"/></g><g id="Layer_4" data-name="Layer 4"><path class="cls-2" d="M770.22,662.13l-159.62.45-318.15-.45H222.67m0,0,24-65.17H745l25.2,65.17" transform="translate(-120.9 -64.43)"/></g><g id="Layer_2" data-name="Layer 2"><path class="cls-3" d="M420,129.43l24.12-65h94.78L879.1,931.57H754.53c-14,0-26.51-3.07-35.48-10.08s-14.43-16.1-18.4-26.51" transform="translate(-120.9 -64.43)"/></g></svg>